<svg xmlns="http://www.w3.org/2000/svg" viewBox="0 0 200 200" width="24" height="24" fill="none" aria-hidden="true">
  <path fill="currentColor" d="M187.83 121.2c-.457 2.603-.863 5.048-1.38 7.468-4.357 20.383-15.615 35.762-33.885 45.065-22.278 11.344-44.414 9.914-65.435-3.779-4.721-3.076-8.88-7.167-12.906-11.194-16.517-16.517-32.846-33.227-49.328-49.781-4.654-4.675-7.072-10.015-5.879-16.682 1.073-5.992 4.623-10.104 10.17-12.885-2.011-2.052-3.909-4.055-5.88-5.982-2.56-2.504-4.605-5.304-5.475-8.877-2.298-9.443 2.828-18.521 12.028-21.276.391-.117.777-.255 1.266-.417-.874-7.158 1.29-13.108 7.087-17.358 5.841-4.282 12.081-4.286 18.247-1.288 1.648-2.176 3.039-4.578 4.948-6.43 6.512-6.317 16.702-6.423 23.144-.05 11.265 11.149 22.317 22.52 33.459 33.797q5.528 5.596 11.064 11.185c.318.321.67.608 1.363.748-.48-2.102-.948-4.208-1.443-6.307-1.387-5.886-2.98-11.731-4.133-17.664-1.916-9.857 4.555-19.613 14.155-21.742 9.967-2.211 19.866 3.753 22.157 13.686 3.214 13.936 7.289 27.565 13.178 40.589 2.439 5.395 5.161 10.657 7.629 16.04 3.097 6.752 4.869 13.885 5.713 21.352.136 3.911.136 7.762.136 11.782M91.871 59.223q6.091 6.172 12.185 12.341c1.601 1.622 2.202 3.514 1.524 5.752-.621 2.053-2.084 3.186-4.079 3.561-2.037.384-3.645-.508-5.074-1.96a38961 38961 0 0 0-43.203-43.802c-2.992-3.029-6.949-3.103-9.796-.246-2.779 2.79-2.65 6.92.326 9.93Q65.38 66.661 87.01 88.524c2.492 2.517 2.718 5.777.556 7.979-2.174 2.215-5.434 2.079-7.896-.38-3.332-3.33-6.634-6.69-9.948-10.037C59.615 75.877 49.515 65.66 39.396 55.46c-2.757-2.78-6.531-2.979-9.26-.559-3.247 2.882-3.202 7.189.14 10.566 14.882 15.038 29.775 30.064 44.651 45.107 2.46 2.488 2.591 5.618.412 7.835-2.168 2.206-5.313 2.131-7.742-.256-2.34-2.297-4.623-4.652-6.93-6.983-6.63-6.693-13.268-13.376-19.88-20.086-2.143-2.175-4.632-2.913-7.453-1.787-4.552 1.82-5.55 7.463-1.973 11.115 6.177 6.303 12.415 12.544 18.62 18.819 11.822 11.957 23.547 24.014 35.48 35.856 16.002 15.878 40.984 19.894 60.961 10.024 27.873-13.77 38.948-47.33 24.72-75.29-8.944-17.577-15.812-35.893-19.985-55.235-.268-1.246-.879-2.515-1.641-3.536-2.303-3.087-6.48-3.978-9.896-2.285-3.663 1.815-5.293 5.685-4.254 10.016 3.272 13.635 6.544 27.27 9.775 40.916.227.959.351 2.052.133 2.99-.866 3.72-5.457 6.12-9.309 2.138-5.512-5.697-11.111-11.308-16.677-16.952a187394 187394 0 0 0-41.06-41.626c-3.16-3.202-7.054-3.408-9.904-.543-2.858 2.873-2.71 6.865.405 10.032 7.649 7.775 15.309 15.539 23.142 23.488M13 151.081c.773-1.108 1.4-2.254 2.347-2.961 2.71-2.022 6.41-.772 7.896 2.621 2.328 5.321 5.435 10.099 9.399 14.304 5.322 5.646 11.604 9.804 18.84 12.492 2.162.804 3.34 2.469 3.476 4.763.133 2.247-.918 3.952-2.871 4.978-1.632.857-3.31.61-4.979-.053q-22.894-9.088-33.247-31.698a8 8 0 0 0-.74-1.329C13 153.189 13 152.216 13 151.081M59.444 159.726c3.354 1.096 4.925 2.829 5.02 5.455.136 3.804-3.532 6.322-7.342 4.961-12.03-4.296-20.772-12.339-26.353-23.941-.411-.855-.838-1.744-1.014-2.665-.508-2.649.996-5.182 3.419-5.973 2.66-.868 5.302.241 6.496 2.884 1.815 4.018 4.124 7.675 7.176 10.844 3.568 3.703 7.724 6.491 12.598 8.435"/>
</svg>