<?xml version="1.0" encoding="UTF-8"?>
<svg id="_图层_2" data-name="图层 2" xmlns="http://www.w3.org/2000/svg" viewBox="0 0 250 250">
  <defs>
    <style>
      .cls-1 {
        fill: #f3d24f;
      }

      .cls-2 {
        fill: #ededed;
      }

      .line {
        fill: #0b0b0b;
        stroke: #0b0b0b;
        stroke-width: 3;
        stroke-linejoin: round;
        paint-order: stroke fill;
      }
    </style>
  </defs>
  <g id="_图层_2-2" data-name="图层 2">
    <rect class="cls-2" width="250" height="250" rx="45" ry="45" />
    <g>
      <circle class="cls-1" cx="119.34" cy="96.11" r="58.74" />
      <path
        class="line"
        d="m139.35,111.44c7.3,15.45,11.11,32.41,17.8,48.71,5.08-1.76,9.82-3.36,14.52-5.05,3.4-1.23,4.78-3.56,3.26-7.05-5.31-12.22-3.17-23.12,3.53-34.62,16.45-28.23,4.83-63.86-24.63-78.41-28.76-14.2-63.22-1.51-76.47,28.18-13.14,29.43,1.1,64.17,31.61,75.41,11.8,4.35,19.09,11.63,22.67,23.55,3.17,10.57,7.18,20.89,10.84,31.31,2.33,6.62,16.64,16.99,23.52,17.07,6.22.07,11.98-3.89,14.18-10.09,3.33-9.39,6.69-18.81.86-28.54-.82-1.37-1.56-3.08-.26-4.84.49.03,1.42-.09,1.51.13,3.14,7.42,7.83,14.29,4.66,23.27-3.42,9.69-5.92,19.72-8.61,29.66-1.06,3.93-2.59,5.3-6.07,2.36-.14-.12-.29-.23-.45-.34-9.93-7.07-21.6-12.65-29.29-21.63-7.55-8.82-9.33-21.8-12.8-33.18-3.97-13.03-11.31-21.05-24.4-26.11-27.39-10.58-41.78-40.31-35.12-69.01,6.64-28.59,32.38-47.5,62.92-46.22,27.59,1.15,51.73,23.35,55.61,51.6,1.92,13.97-.39,27.39-8.14,39.4-5.73,8.88-6.9,17.86-3.08,27.79,3.19,8.29,1.45,11.43-6.94,14.46-3,1.08-6.09,1.92-9.01,3.18-5.03,2.18-7.67.25-9.34-4.57-4.22-12.21-8.62-24.35-13.12-37.02-5.16,6.23-10.94,10.15-19.13,7.91-8.55-2.34-13.85-11.5-11.34-19.73,2.75-9,11.6-13.79,20.32-11.04,4.11,1.29,8.17,2.78,12.35,3.78,6.82,1.62,12.99-2.35,14.49-9,1.5-6.64-2.47-12.95-9.15-14.55-6.43-1.54-12.68,2.55-14.5,9.28-.48,1.76.54,4.42-2.43,5.03-4.09-6.71,2.06-16.66,11.14-18.15,7.1-1.16,13.54,1.64,16.95,7.37,3.27,5.5,2.86,12.91-1,18.01-4.08,5.39-10.77,7.63-17.58,5.69-3.6-1.02-7.09-2.42-10.68-3.5-7.11-2.15-14.06,1.2-15.93,7.61-1.98,6.76,1.88,13.88,8.42,15.52,7.05,1.77,13.22-2.18,15.09-9.8.36-1.46.28-3.02,3.19-3.82Z"
      />
    </g>
  </g>
</svg>
